
<svg vector-effect="non-scaling-stroke" xmlns="http://www.w3.org/2000/svg" version="1.1" xmlns:xlink="http://www.w3.org/1999/xlink" preserveAspectRatio="none" x="0px" y="0px" width="60px" height="60px" viewBox="0 0 60 60">
<defs>
<path id="Layer5_0_1_STROKES" stroke="#FFFFFF" stroke-width="1" stroke-linejoin="round" stroke-linecap="round" fill="none" d="
M 48.45 16.05
Q 49.15 18.3 49.3 20.75 49.3 21.25 49.3 21.75
L 49.3 38.25
Q 49.3 46.25 43.65 51.85 38 57.5 30.05 57.5 22.1 57.5 16.35 51.85 10.75 46.25 10.75 38.25
L 10.75 21.75
Q 10.75 20.55 10.9 19.4 11 17.95 11.4 16.7 12.6 11.85 16.35 8.1 22.1 2.5 30.05 2.5 38 2.5 43.65 8.1 47.15 11.65 48.45 16.05 38 17.65 27.5 9.45 20 15.75 11.4 16.7
M 24.1 33.1
Q 24.1 34.15 23.35 34.9 22.6 35.65 21.55 35.65 20.5 35.65 19.75 34.9 19 34.15 19 33.1 19 32.05 19.75 31.3 20.5 30.55 21.55 30.55 22.6 30.55 23.35 31.3 24.1 32.05 24.1 33.1 Z
M 41.05 29.9
Q 41.05 31 40.25 31.75 39.5 32.55 38.4 32.55 37.3 32.55 36.5 31.75 35.75 31 35.75 29.9 35.75 28.8 36.5 28 37.3 27.25 38.4 27.25 39.5 27.25 40.25 28 41.05 28.8 41.05 29.9 Z
M 23.95 43
Q 30.25 41.05 36.05 43"/>

<path id="Layer5_1_1_STROKES" stroke="#FFFFFF" stroke-width="1" stroke-linejoin="round" stroke-linecap="round" fill="none" d="
M 44.25 4.925
Q 46.187109375 4.771875 48 4.75 56.25 4.65 57 7.45 57.75 10.25 50.55 14.35 43.35 18.35 32.45 21.3 21.5 24.2 13.2 24.35 4.9 24.4 4.15 21.6 3.4345703125 18.9287109375 10 15.125"/>

<path id="Layer5_2_MEMBER_0_1_STROKES" stroke="#FFFFFF" stroke-width="1" stroke-linejoin="round" stroke-linecap="round" fill="none" d="
M 54.5 18.05
L 54.5 22.3"/>

<path id="Layer5_2_MEMBER_1_1_STROKES" stroke="#FFFFFF" stroke-width="1" stroke-linejoin="round" stroke-linecap="round" fill="none" d="
M 56.60000000000001 20.15
L 52.35000000000001 20.15"/>

<path id="Layer5_3_MEMBER_0_1_STROKES" stroke="#FFFFFF" stroke-width="1" stroke-linejoin="round" stroke-linecap="round" fill="none" d="
M 54.5 18.05
L 54.5 22.3"/>

<path id="Layer5_3_MEMBER_1_1_STROKES" stroke="#FFFFFF" stroke-width="1" stroke-linejoin="round" stroke-linecap="round" fill="none" d="
M 9.5 8.75
L 5.25 8.75"/>
</defs>

<g transform="matrix( 1, 0, 0, 1, 0,0) ">
<use xlink:href="#Layer5_0_1_STROKES"/>
</g>

<g transform="matrix( 1, 0, 0, 1, 0,0) ">
<use xlink:href="#Layer5_1_1_STROKES"/>
</g>

<g transform="matrix( 1, 0, 0, 1, 0,0) ">
<use xlink:href="#Layer5_2_MEMBER_0_1_STROKES"/>
</g>

<g transform="matrix( 0, 1, -1, 0, 74.65,-34.35) ">
<use xlink:href="#Layer5_2_MEMBER_1_1_STROKES" transform="matrix( 0, -1, 1, 0, 34.35,74.65) "/>
</g>

<g transform="matrix( 1, 0, 0, 1, -47.1,-11.4) ">
<use xlink:href="#Layer5_3_MEMBER_0_1_STROKES"/>
</g>

<g transform="matrix( 0, 1, -1, 0, 27.55,-45.75) ">
<use xlink:href="#Layer5_3_MEMBER_1_1_STROKES" transform="matrix( 0, -1, 1, 0, 45.75,27.55) "/>
</g>
</svg>
