<?xml version="1.0" encoding="UTF-8"?>
<svg xmlns="http://www.w3.org/2000/svg" xmlns:xlink="http://www.w3.org/1999/xlink" version="1.1" id="Capa_1" x="0px" y="0px" viewBox="0 0 512 512" style="enable-background:new 0 0 512 512;" xml:space="preserve" width="512" height="512">
<g>
	<g>
		<path style="fill:none;stroke:white;stroke-width:15;stroke-linecap:round;stroke-linejoin:round;stroke-miterlimit:10;" d="&#10;&#9;&#9;&#9;M107.82,103.471C67.05,81.552,43.59,59.554,48.06,43.605c7.2-25.708,84.59-27.168,180.83-5.54"/>
		<path style="fill:none;stroke:white;stroke-width:15;stroke-linecap:round;stroke-linejoin:round;stroke-miterlimit:10;" d="&#10;&#9;&#9;&#9;M274.75,49.764c112.91,32.188,197.33,81.274,189.19,110.312c-4.02,14.349-29.92,21.149-68.77,20.579"/>
		<path style="fill:none;stroke:white;stroke-width:15;stroke-linecap:round;stroke-linejoin:round;stroke-miterlimit:10;" d="&#10;&#9;&#9;&#9;M42.948,204.608l6.747,13.669c0.583,1.18,1.709,1.999,3.012,2.188l15.086,2.192c3.281,0.477,4.591,4.508,2.217,6.822&#10;&#9;&#9;&#9;l-10.916,10.64c-0.943,0.919-1.373,2.243-1.15,3.54l2.577,15.024c0.56,3.267-2.869,5.759-5.804,4.216l-13.493-7.093&#10;&#9;&#9;&#9;c-1.165-0.613-2.557-0.613-3.723,0l-13.493,7.093c-2.935,1.543-6.364-0.949-5.804-4.216l2.577-15.024&#10;&#9;&#9;&#9;c0.223-1.297-0.208-2.621-1.15-3.54L8.712,229.48c-2.374-2.314-1.064-6.346,2.217-6.822l15.086-2.192&#10;&#9;&#9;&#9;c1.303-0.189,2.429-1.008,3.012-2.188l6.747-13.669C37.241,201.635,41.48,201.635,42.948,204.608z"/>
		<path style="fill:none;stroke:white;stroke-width:15;stroke-linecap:round;stroke-linejoin:round;stroke-miterlimit:10;" d="&#10;&#9;&#9;&#9;M476.226,204.608l6.747,13.669c0.583,1.18,1.709,1.999,3.012,2.188l15.086,2.192c3.281,0.477,4.591,4.508,2.217,6.822&#10;&#9;&#9;&#9;l-10.916,10.64c-0.943,0.919-1.373,2.243-1.15,3.54l2.577,15.024c0.56,3.267-2.869,5.759-5.804,4.216l-13.493-7.093&#10;&#9;&#9;&#9;c-1.165-0.613-2.557-0.613-3.723,0l-13.493,7.093c-2.935,1.543-6.364-0.949-5.804-4.216l2.577-15.024&#10;&#9;&#9;&#9;c0.223-1.297-0.208-2.621-1.15-3.54l-10.916-10.64c-2.374-2.314-1.064-6.346,2.217-6.822l15.086-2.192&#10;&#9;&#9;&#9;c1.303-0.189,2.429-1.008,3.012-2.188l6.747-13.669C470.52,201.635,474.759,201.635,476.226,204.608z"/>
		<path style="fill:none;stroke:white;stroke-width:15;stroke-linecap:round;stroke-linejoin:round;stroke-miterlimit:10;" d="&#10;&#9;&#9;&#9;M116.93,372.292h-11.01c-11.38,0-21.69-4.62-29.15-12.079c-7.46-7.46-12.07-17.759-12.07-29.138&#10;&#9;&#9;&#9;c0-22.768,18.45-41.217,41.22-41.217h10.84"/>
		<path style="fill:none;stroke:white;stroke-width:15;stroke-linecap:round;stroke-linejoin:round;stroke-miterlimit:10;" d="&#10;&#9;&#9;&#9;M395.24,289.858h10.84c22.77,0,41.22,18.449,41.22,41.217c0,11.379-4.61,21.679-12.07,29.138&#10;&#9;&#9;&#9;c-7.46,7.459-17.77,12.079-29.15,12.079h-11.01"/>
		<path style="fill:none;stroke:white;stroke-width:15;stroke-linecap:round;stroke-linejoin:round;stroke-miterlimit:10;" d="&#10;&#9;&#9;&#9;M136.203,436.259c-12.351-20.79-19.444-45.071-19.444-71.007v-94.209"/>
		<path style="fill:none;stroke:white;stroke-width:15;stroke-linecap:round;stroke-linejoin:round;stroke-miterlimit:10;" d="&#10;&#9;&#9;&#9;M395.241,271.043v94.209c0,76.895-62.34,139.231-139.24,139.231h0c-38.387,0-73.146-15.533-98.334-40.656"/>
		<path style="fill:none;stroke:white;stroke-width:15;stroke-linecap:round;stroke-linejoin:round;stroke-miterlimit:10;" d="&#10;&#9;&#9;&#9;M227.336,440.76c4.75-2.567,14.41-6.963,27.346-7.196c14.463-0.26,25.207,4.825,29.983,7.46"/>
		<path style="fill:none;stroke:white;stroke-width:15;stroke-linecap:round;stroke-linejoin:round;stroke-miterlimit:10;" d="&#10;&#9;&#9;&#9;M116.759,289.858V177.014c0-11.337,8.866-20.695,20.187-21.307l5.482-0.297c2.858-0.155,3.301-4.174,0.549-4.961&#10;&#9;&#9;&#9;c-10.937-3.127-23.566-7.917-36.751-15.358c-11.553-6.52-20.985-13.637-28.454-20.188c-2.531-2.22-1.397-6.38,1.92-6.962&#10;&#9;&#9;&#9;c41.31-7.243,90.197-12.811,145.163-13.344c33.203-0.322,64.3,1.234,92.965,3.962c43.934,4.18,77.421,41.207,77.421,85.337&#10;&#9;&#9;&#9;v105.962c-11.547,0-21.857-7.234-25.786-18.092l-19.271-53.268c-2.28-6.303-9.152-9.635-15.52-7.544&#10;&#9;&#9;&#9;c-22.021,7.23-54.29,14.513-93.172,12.27c-25.872-1.492-47.841-6.807-64.852-12.478c-6.273-2.091-13.069,1.163-15.43,7.339&#10;&#9;&#9;&#9;c-5.938,15.529-11.875,36.558-17.813,53.49c-3.846,10.967-14.232,18.282-25.855,18.282H116.759z"/>
		<g>
			<g>
				<path style="fill:none;stroke:white;stroke-width:15;stroke-linecap:round;stroke-linejoin:round;stroke-miterlimit:10;" d="&#10;&#9;&#9;&#9;&#9;&#9;M157.667,307.781c4.084-2.207,12.389-5.986,23.511-6.187c12.435-0.224,21.672,4.148,25.778,6.414"/>
				<path style="fill:none;stroke:white;stroke-width:15;stroke-linecap:round;stroke-linejoin:round;stroke-miterlimit:10;" d="&#10;&#9;&#9;&#9;&#9;&#9;M305.044,307.781c4.084-2.207,12.389-5.986,23.511-6.187c12.435-0.224,21.672,4.148,25.778,6.414"/>
			</g>
			
				<line style="fill:none;stroke:white;stroke-width:15;stroke-linecap:round;stroke-linejoin:round;stroke-miterlimit:10;" x1="329.689" y1="327.44" x2="329.689" y2="351.529"/>
			
				<line style="fill:none;stroke:white;stroke-width:15;stroke-linecap:round;stroke-linejoin:round;stroke-miterlimit:10;" x1="182.311" y1="327.44" x2="182.311" y2="351.529"/>
		</g>
		<path style="fill:none;stroke:white;stroke-width:15;stroke-linecap:round;stroke-linejoin:round;stroke-miterlimit:10;" d="&#10;&#9;&#9;&#9;M254.1,155.382c-52.474,17.109-100.966,27.175-137.34,29.453c-35.6,2.24-59.59-2.97-64.32-16.329&#10;&#9;&#9;&#9;c-4.31-12.179,8.09-29.178,32.37-47.757"/>
		<path style="fill:none;stroke:white;stroke-width:15;stroke-linecap:round;stroke-linejoin:round;stroke-miterlimit:10;" d="&#10;&#9;&#9;&#9;M286.48,28.726c91.03-25.978,164.41-28.858,173.08-4.38c7.41,20.929-34.51,56.076-101.25,89.004&#10;&#9;&#9;&#9;c-21.34,10.528-45.208,20.829-70.814,30.37"/>
		<path style="fill:none;stroke:white;stroke-width:15;stroke-linecap:round;stroke-linejoin:round;stroke-miterlimit:10;" d="&#10;&#9;&#9;&#9;M110.76,103.061c32.37-19.959,75.92-40.547,125.21-58.106"/>
		<path style="fill:none;stroke:white;stroke-width:15;stroke-linecap:round;stroke-linejoin:round;stroke-miterlimit:10;" d="&#10;&#9;&#9;&#9;M259.587,9.747l6.747,13.669c0.583,1.18,1.709,1.999,3.012,2.188l15.086,2.192c3.281,0.477,4.591,4.508,2.217,6.822l-10.916,10.64&#10;&#9;&#9;&#9;c-0.943,0.919-1.373,2.243-1.15,3.54l2.577,15.024c0.56,3.267-2.869,5.759-5.804,4.216l-13.493-7.093&#10;&#9;&#9;&#9;c-1.165-0.613-2.557-0.613-3.723,0l-13.493,7.093c-2.935,1.543-6.364-0.949-5.804-4.216l2.577-15.024&#10;&#9;&#9;&#9;c0.223-1.297-0.208-2.621-1.15-3.54l-10.916-10.64c-2.374-2.314-1.064-6.346,2.217-6.822l15.086-2.192&#10;&#9;&#9;&#9;c1.303-0.189,2.429-1.008,3.012-2.188l6.747-13.669C253.88,6.774,258.12,6.774,259.587,9.747z"/>
	</g>
</g>















</svg>
