<?xml version="1.0" encoding="UTF-8"?>
<svg xmlns="http://www.w3.org/2000/svg" xmlns:xlink="http://www.w3.org/1999/xlink" version="1.1" id="Capa_1" x="0px" y="0px" viewBox="0 0 512.002 512.002" style="enable-background:new 0 0 512.002 512.002;" xml:space="preserve" width="512" height="512">
<g>
	<g>
		
			<path style="fill-rule:evenodd;clip-rule:evenodd;fill:none;stroke:white;stroke-width:19.9998;stroke-linecap:round;stroke-linejoin:round;stroke-miterlimit:22.9256;" d="&#10;&#9;&#9;&#9;M327.435,472.343c-0.398-17.278-3.553-33.856-9.027-49.326 M266.274,350.766c-26.935-21.006-60.802-33.504-97.536-33.504&#10;&#9;&#9;&#9;C81.07,317.262,10,388.332,10,476.001h492.002c0-68.117-36.825-127.629-91.649-159.727 M350.477,294.068&#10;&#9;&#9;&#9;c-10.846-1.982-22.018-3.029-33.437-3.029c-36.65,0-72.458,10.888-102.889,31.258"/>
		
			<polygon style="fill-rule:evenodd;clip-rule:evenodd;fill:none;stroke:white;stroke-width:19.9998;stroke-linecap:round;stroke-linejoin:round;stroke-miterlimit:22.9256;" points="&#10;&#9;&#9;&#9;168.738,36.001 222.503,116.708 193.727,116.708 231.835,176.419 207.189,176.419 252.917,247.568 84.559,247.568 &#10;&#9;&#9;&#9;130.288,176.419 105.641,176.419 143.75,116.708 114.974,116.708 &#9;&#9;"/>
		
			<polygon style="fill-rule:evenodd;clip-rule:evenodd;fill:none;stroke:white;stroke-width:19.9998;stroke-linecap:round;stroke-linejoin:round;stroke-miterlimit:22.9256;" points="&#10;&#9;&#9;&#9;401.336,175.354 455.101,256.061 426.324,256.061 464.433,315.772 338.239,315.772 376.348,256.061 347.571,256.061 &#9;&#9;"/>
		
			<line style="fill-rule:evenodd;clip-rule:evenodd;fill:none;stroke:white;stroke-width:19.9998;stroke-linecap:round;stroke-linejoin:round;stroke-miterlimit:22.9256;" x1="401.336" y1="320.772" x2="401.336" y2="345.148"/>
		
			<line style="fill-rule:evenodd;clip-rule:evenodd;fill:none;stroke:white;stroke-width:19.9998;stroke-linecap:round;stroke-linejoin:round;stroke-miterlimit:22.9256;" x1="188.738" y1="249.904" x2="188.738" y2="316.174"/>
		
			<line style="fill-rule:evenodd;clip-rule:evenodd;fill:none;stroke:white;stroke-width:19.9998;stroke-linecap:round;stroke-linejoin:round;stroke-miterlimit:22.9256;" x1="148.738" y1="249.904" x2="148.738" y2="316.174"/>
		
			<line style="fill-rule:evenodd;clip-rule:evenodd;fill:none;stroke:white;stroke-width:20.0001;stroke-linecap:round;stroke-linejoin:round;stroke-miterlimit:22.9256;" x1="79.727" y1="420.089" x2="79.735" y2="420.089"/>
		
			<line style="fill-rule:evenodd;clip-rule:evenodd;fill:none;stroke:white;stroke-width:20.0001;stroke-linecap:round;stroke-linejoin:round;stroke-miterlimit:22.9256;" x1="172.498" y1="369.517" x2="172.506" y2="369.517"/>
		
			<line style="fill-rule:evenodd;clip-rule:evenodd;fill:none;stroke:white;stroke-width:20.0001;stroke-linecap:round;stroke-linejoin:round;stroke-miterlimit:22.9256;" x1="150.582" y1="427.819" x2="150.59" y2="427.819"/>
		
			<line style="fill-rule:evenodd;clip-rule:evenodd;fill:none;stroke:white;stroke-width:19.9998;stroke-linecap:round;stroke-linejoin:round;stroke-miterlimit:2.6131;" x1="297.503" y1="383.159" x2="297.51" y2="383.159"/>
	</g>
</g>















</svg>
