<svg id="Capa_1" fill='white' enable-background="new 0 0 512 512" height="512" viewBox="0 0 512 512" width="512" xmlns="http://www.w3.org/2000/svg"><g><path d="m461.491 234.935c0-10.66-3.658-20.873-10.341-29.088-.789-54.617-24.524-106.607-65.426-143.016-3.092-2.753-7.834-2.478-10.587.615-2.755 3.094-2.479 7.834.615 10.587 36.466 32.463 58.168 78.336 60.268 126.853-5.698-.401-11.37-1.251-16.958-2.539-12.426-39.43-33.53-65.022-64.418-78.165-27.971-11.901-61.222-12.87-98.644-12.87-37.534 0-70.872.969-98.752 12.874-31.192 13.318-51.669 38.254-64.207 78.301-5.185 1.309-10.772 2.117-17.067 2.468 1.329-31.336 10.755-61.679 27.463-88.199 1.779-2.824 1.478-6.484-.739-8.979-11.091-12.009-13.829-31.189-4.513-38.201 6.92-5.493 19.123-3.317 29.017 5.172 2.867 2.46 7.114 2.403 9.916-.13 2.801-2.534 3.28-6.757 1.118-9.853-10.802-15.479-11.365-33.873-1.282-41.876 4.912-3.898 11.848-4.893 19.529-2.804 10.167 2.631 20.514 11.074 26.581 21.009 1.894 3.044 5.677 4.323 9.028 3.049 20.413-7.747 41.915-11.674 63.908-11.674 32.654 0 64.644 8.832 92.513 25.541 3.553 2.128 8.158.977 10.289-2.576 2.13-3.553.977-8.159-2.576-10.289-30.199-18.106-64.857-27.676-100.226-27.676-21.834 0-43.227 3.577-63.679 10.639-8.309-11.043-19.89-19.261-31.897-22.495-12.402-3.378-24.049-1.413-32.795 5.527-11.589 9.198-15.419 25.07-11.323 41.425-10.06-2.339-19.967-.674-27.447 5.263-14.754 11.71-15.008 36.221-.92 55.526-17.287 29.201-26.592 62.389-27.081 96.48-6.688 8.217-10.349 18.435-10.349 29.099 0 21.264 14.488 39.367 34.325 44.617-1.391 6.016-2.117 12.216-2.117 18.497 0 45.344 36.89 82.234 82.235 82.234 2.361 0 4.718-.108 7.065-.311 3.57 2.072 7.209 4.009 10.91 5.804-32.635 20.152-56.087 53.356-63.637 91.324-1.707 8.564.502 17.363 6.062 24.141 5.61 6.838 13.895 10.759 22.734 10.759h172.501c4.142 0 7.5-3.357 7.5-7.5 0-4.142-3.357-7.5-7.5-7.5h-172.501c-4.329 0-8.388-1.922-11.137-5.273-2.7-3.291-3.774-7.553-2.949-11.694 5.593-28.055 20.852-53.164 42.513-71.206 3.839 15.404 12.086 29.432 23.948 40.376 15.166 13.993 34.89 21.698 55.538 21.698 20.649 0 40.372-7.706 55.539-21.698 11.862-10.944 20.109-24.971 23.948-40.376 21.661 18.042 36.919 43.151 42.513 71.206.826 4.14-.249 8.403-2.949 11.694-2.749 3.351-6.808 5.273-11.137 5.273h-8.328c-4.142 0-7.5 3.357-7.5 7.5 0 4.142 3.357 7.5 7.5 7.5h8.328c8.839 0 17.125-3.922 22.734-10.759 5.559-6.778 7.769-15.577 6.062-24.141-7.549-37.968-31.002-71.173-63.637-91.324 3.702-1.795 7.34-3.731 10.91-5.804 2.345.202 4.7.311 7.059.311 45.345 0 82.235-36.89 82.235-82.234 0-6.278-.727-12.479-2.118-18.495 19.841-5.246 34.333-23.351 34.333-44.617zm-395.982 0c0-6.849 2.234-13.427 6.34-18.827 6.492-.139 12.396-.659 17.902-1.607-.836 6.815-1.264 13.686-1.264 20.537 0 9.232.77 18.491 2.273 27.566-.42.88-.822 1.768-1.211 2.662-13.834-3.235-24.04-15.667-24.04-30.331zm256.64 164.198c-4.952 32.166-33.183 56.77-66.149 56.77-32.965 0-61.196-24.604-66.149-56.769 3.445-2.169 7.008-4.176 10.681-6.009 17.724 6.212 36.475 9.427 55.468 9.427 18.994 0 37.745-3.215 55.469-9.427 3.672 1.832 7.235 3.839 10.68 6.008zm24.893-33.85c-11.009 0-21.925-2.716-31.566-7.854-3.658-1.948-8.198-.561-10.146 3.092-1.947 3.655-.563 8.198 3.092 10.146 2.865 1.527 5.823 2.875 8.849 4.047-19.213 8.428-40.071 12.838-61.271 12.838s-42.059-4.411-61.274-12.84c2.999-1.161 5.93-2.495 8.77-4.004 3.657-1.944 5.047-6.485 3.102-10.142-1.944-3.658-6.485-5.048-10.142-3.103-9.627 5.117-20.521 7.821-31.505 7.821-37.074 0-67.235-30.161-67.235-67.235 0-19.28 8.298-37.661 22.765-50.43 3.105-2.741 3.401-7.48.66-10.586-2.741-3.105-7.481-3.402-10.586-.66-2.428 2.143-4.708 4.42-6.845 6.806-.144-2.713-.225-5.428-.225-8.142 0-9.265.847-18.574 2.519-27.691.081-.205.152-.415.214-.627 23.057-78.726 71.967-84.406 149.781-84.406 35.748 0 67.403.878 92.771 11.672 27.832 11.842 45.956 34.812 57.015 72.259 1.809 9.466 2.729 19.151 2.729 28.793 0 2.716-.081 5.434-.225 8.148-2.081-2.324-4.298-4.544-6.655-6.637-3.099-2.751-7.839-2.472-10.587.627-2.751 3.097-2.47 7.837.627 10.587 14.365 12.759 22.604 31.088 22.604 50.286 0 37.074-30.162 67.235-67.236 67.235zm75.402-100.016c-.387-.891-.787-1.776-1.205-2.653 1.504-9.076 2.275-18.339 2.275-27.577 0-6.927-.438-13.874-1.293-20.762 5.929 1.038 11.92 1.651 17.924 1.823 4.11 5.402 6.347 11.984 6.347 18.836-.001 14.668-10.211 27.103-24.048 30.333z"/><path d="m283.46 285.89c-2.766-2.41-4.352-5.889-4.352-9.546 0-3.656 1.586-7.134 4.351-9.545 3.123-2.721 3.449-7.458.728-10.581-2.721-3.124-7.459-3.449-10.581-.728-4.101 3.573-7.01 8.229-8.456 13.353h-17.132c-1.446-5.124-4.355-9.78-8.456-13.353-3.122-2.721-7.861-2.396-10.581.728-2.721 3.123-2.395 7.86.728 10.581 2.766 2.41 4.351 5.888 4.351 9.545 0 3.656-1.586 7.135-4.352 9.546-3.122 2.722-3.448 7.459-.727 10.582 1.483 1.701 3.564 2.572 5.657 2.572 1.748 0 3.503-.607 4.925-1.846 4.101-3.574 7.009-8.23 8.455-13.354h17.133c1.446 5.124 4.354 9.78 8.455 13.354 1.421 1.238 3.177 1.846 4.925 1.846 2.093 0 4.174-.871 5.657-2.572 2.72-3.124 2.394-7.861-.728-10.582z"/><path d="m201.175 217.513c-4.424 2.658-10.287 2.658-14.71 0-3.552-2.133-8.159-.983-10.291 2.568-2.133 3.551-.983 8.158 2.567 10.291 2.585 1.553 5.392 2.673 8.307 3.364-.462.973-.728 2.058-.728 3.207v12c0 4.142 3.358 7.5 7.5 7.5s7.5-3.357 7.5-7.5v-12c0-1.149-.266-2.234-.728-3.207 2.915-.691 5.721-1.811 8.307-3.364 3.551-2.133 4.7-6.74 2.567-10.291-2.133-3.55-6.738-4.698-10.291-2.568z"/><path d="m326.068 217.513c-4.426 2.658-10.287 2.658-14.712 0-3.552-2.133-8.159-.982-10.291 2.568-2.133 3.551-.982 8.158 2.568 10.291 2.586 1.553 5.392 2.673 8.307 3.364-.462.973-.728 2.058-.728 3.207v12c0 4.142 3.357 7.5 7.5 7.5 4.142 0 7.5-3.357 7.5-7.5v-12c0-1.149-.266-2.234-.728-3.207 2.915-.691 5.721-1.811 8.307-3.364 3.551-2.133 4.701-6.74 2.568-10.291-2.134-3.551-6.74-4.699-10.291-2.568z"/></g></svg>