
<svg vector-effect="non-scaling-stroke" xmlns="http://www.w3.org/2000/svg" version="1.1" xmlns:xlink="http://www.w3.org/1999/xlink" preserveAspectRatio="none" x="0px" y="0px" width="60px" height="60px" viewBox="0 0 60 60">
<defs>
<path id="Layer5_0_1_STROKES" stroke="#FFFFFF" stroke-width="1" stroke-linejoin="round" stroke-linecap="round" fill="none" d="
M 48.45 16.05
Q 49.15 18.3 49.3 20.75 49.3 21.25 49.3 21.75
L 49.3 38.25
Q 49.3 46.25 43.65 51.85 38 57.5 30.05 57.5 22.1 57.5 16.35 51.85 14.1486328125 49.6486328125 12.825 47.075 12.470703125 46.875 12.15 46.6 10.7 45.45 10.3 43.85 10.3 43.5 10.25 43.2 10.09453125 41.64453125 10.85 40.3 10.75 39.29609375 10.75 38.25
L 10.75 21.75
Q 10.75 20.55 10.9 19.4 11 17.95 11.4 16.7 12.6 11.85 16.35 8.1 22.1 2.5 30.05 2.5 38 2.5 43.65 8.1 47.15 11.65 48.45 16.05 38 17.65 27.5 9.45 20 15.75 11.4 16.7
M 52.25 42.05
L 55.25 42.05
M 24.1 28.1
Q 24.1 29.15 23.35 29.9 22.6 30.65 21.55 30.65 20.5 30.65 19.75 29.9 19 29.15 19 28.1 19 27.05 19.75 26.3 20.5 25.55 21.55 25.55 22.6 25.55 23.35 26.3 24.1 27.05 24.1 28.1 Z
M 41.05 29.9
Q 41.05 31 40.25 31.75 39.5 32.55 38.4 32.55 37.3 32.55 36.5 31.75 35.75 31 35.75 29.9 35.75 28.8 36.5 28 37.3 27.25 38.4 27.25 39.5 27.25 40.25 28 41.05 28.8 41.05 29.9 Z
M 21.1 39.3
Q 21.7 39.55 22.25 40.1 23.45 41.35 23.45 43 23.45 43.25 23.45 43.5 23.3 44.85 22.25 45.9 21.7 46.45 21.1 46.7
M 38.9 46.7
Q 38.3 46.45 37.75 45.9 36.7 44.85 36.6 43.5 36.55 43.25 36.55 43 36.55 41.35 37.75 40.1 38.3 39.55 38.9 39.3
M 23.95 43
Q 30.25 41.05 36.05 43
M 50.5 48.55
L 54 52.05"/>
</defs>

<g transform="matrix( 1, 0, 0, 1, 0,0) ">
<use xlink:href="#Layer5_0_1_STROKES"/>
</g>
</svg>
