<svg id="Pond" enable-background="new 0 0 400 400" height="512" viewBox="0 0 400 400" width="512" xmlns="http://www.w3.org/2000/svg"><path d="m399.989 254.369c0 .001 0 .001 0 0zm-22.841 41.382c7.723 9.641 11.8 21.155 11.8 33.347v.168c-.031 10.988-9.209 19.925-20.458 19.925l-110.339.005c-6.65 0-12.629-4.222-14.76-10.341-15.087 1.568-31.001 2.56-47.315 2.946-4.329.101-8.841.153-13.408.153-64.888 0-106.514-11.48-130.008-21.111-33.01-13.527-52.201-32.332-52.652-51.597-.484-20.356 20.608-32.466 37.555-42.196l.168-.096c7.384-4.258 16.574-9.558 17.375-12.694.463-1.804-2.344-3.606-8.412-6.724-5.893-3.033-11.951-6.151-13.513-12.205-.894-3.447-.054-7.133 2.499-10.954 4.843-7.232 15.154-13.531 30.651-18.728-3.221-20.931-8.619-37.284-12.203-48.142-3.722-11.26-5.114-15.473-2.072-18.618 1.502-1.553 3.703-2.16 6.538-1.81 7.99.981 21.76 9.574 33.549 26.139.193-.69.39-1.378.593-2.065 12.194-42.186 35.67-65.02 47.604-69.503 3.136-1.173 5.717-1.128 7.676.132 4.634 2.972 3.417 9 .167 25.111l-.022.111c-1.812 8.92-4.256 20.957-6.041 34.996 8.165-9.211 17.362-15.625 24.934-17.321 3.32-.752 5.98-.445 7.907.912 4.409 3.058 2.605 8.079-1.346 19.079-3.281 9.139-7.74 21.558-10.834 37.393 4.248-.096 8.448-.144 12.498-.144 47.614 0 93.828 5.818 130.132 16.382 60.98 17.752 93.685 47.515 94.579 86.068.353 14.647-7.541 28.943-22.842 41.382zm-246.499-150.846c.015-4.33.164-8.83.444-13.37.107-1.595.214-3.155.337-4.715 1.68-21.533 5.353-39.649 7.784-51.637 1.134-5.59 2.182-10.878 2.576-14.2-7.984 4.387-28.755 22.798-40.29 62.713-1.05 3.635-1.936 7.057-2.707 10.463l-.001.004c-.883 3.813-1.687 7.872-2.388 12.063-.626 3.685-1.176 7.718-1.678 12.302 11.005-2.047 23.124-3.646 36.051-4.759-.105-3.284-.147-6.191-.128-8.864zm9.239 8.162c4.267-.284 8.817-.522 13.546-.71 3.3-17.719 8.277-31.571 11.582-40.771.93-2.582 1.962-5.447 2.639-7.634-5.54 1.932-16.793 9.106-27.282 25.579l-.171 2.573c-.428 6.913-.532 13.779-.314 20.963zm183.852 180.793v.114c-.007 2.095-.46 4.176-1.319 6.089h46.069c6.233 0 11.316-4.851 11.331-10.814v-.151c0-25.073-21.241-45.471-47.35-45.471-12.783 0-25.113 5.04-34.015 13.866 15.172 5.997 25.284 20.47 25.284 36.367zm-72.054 0 .001.164c.018 3.332 2.917 6.043 6.464 6.043h49.996c3.554 0 6.453-2.74 6.464-6.108v-.099c0-16.618-14.106-30.139-31.446-30.139-17.357 0-31.479 13.521-31.479 30.139zm-209.523-98.934c-14.903 8.573-33.382 19.202-33.026 34.103.359 15.245 17.926 31.46 46.992 43.376 24.784 10.155 69.142 21.917 139.729 20.268 16.154-.383 31.94-1.368 46.929-2.925 2.143-19.763 19.756-35.155 40.378-35.155 1.722 0 3.492.114 5.267.338 10.818-12.99 26.844-20.432 44.038-20.432 14.303 0 27.919 5.19 38.415 14.628 13.355-10.655 20.259-22.588 19.973-34.537-1.012-43.207-48.416-66.005-88.006-77.522-35.787-10.428-81.374-16.117-126.693-16.117-11.137 0-22.248.343-33.205 1.044-51.588 3.298-90.715 14.077-99.682 27.46-1.308 1.954-1.406 3.032-1.257 3.592.551 2.136 5.35 4.58 8.854 6.365 6.907 3.565 15.41 7.955 13.089 17.096-1.753 6.891-10.598 11.978-21.795 18.418zm47.002-99.552c-10.467-17.66-22.449-25.932-28.836-28.46.614 2.093 1.494 4.771 2.352 7.378l.12.365c3.586 10.862 8.981 27.204 12.338 48.316 3.305-.911 6.729-1.763 10.198-2.539.86-8.728 2.148-17.155 3.828-25.06zm13.337 148.252c0-17.527 31.897-26.985 61.909-26.985s61.909 9.458 61.909 26.985c0 17.528-31.897 26.986-61.909 26.986s-61.909-9.458-61.909-26.986zm114.689 0c0-8.257-23.056-17.856-52.78-17.856-29.725 0-52.781 9.599-52.781 17.856 0 8.258 23.056 17.857 52.781 17.857 29.724 0 52.78-9.599 52.78-17.857zm-19.865-59.116h22.946c2.517 0 4.564-2.048 4.564-4.565s-2.047-4.564-4.564-4.564h-22.946c-2.517 0-4.564 2.047-4.564 4.564s2.047 4.565 4.564 4.565zm-39.107-24.862h22.945c2.516 0 4.564-2.048 4.564-4.564s-2.048-4.564-4.564-4.564h-22.945c-2.517 0-4.564 2.048-4.564 4.564s2.048 4.564 4.564 4.564zm84.702 3.135h22.945c2.517 0 4.564-2.048 4.564-4.564 0-2.517-2.047-4.564-4.564-4.564h-22.945c-2.517 0-4.565 2.048-4.565 4.564s2.048 4.564 4.565 4.564zm31.052 29.16h22.945c2.517 0 4.565-2.048 4.565-4.565s-2.048-4.564-4.565-4.564h-22.945c-2.517 0-4.564 2.047-4.564 4.564s2.047 4.565 4.564 4.565z" fill="white"/></svg>