
<svg vector-effect="non-scaling-stroke" xmlns="http://www.w3.org/2000/svg" version="1.1" xmlns:xlink="http://www.w3.org/1999/xlink" preserveAspectRatio="none" x="0px" y="0px" width="60px" height="60px" viewBox="0 0 60 60">
<defs>
<path id="Layer5_0_1_STROKES" stroke="#FFFFFF" stroke-width="1" stroke-linejoin="round" stroke-linecap="round" fill="none" d="
M 57.45 57.55
L 2.5 57.55 2.5 30.9 2.5 23.65
Q 5.35 22.15 9.4 22.15 13.4 22.15 16.25 23.65 19.1 25.15 23.15 25.15 27.15 25.15 30 23.65 32.85 22.15 36.9 22.15 40.9 22.15 43.75 23.65 45.4 24.45 47 24.75 48.85 25.15 50.65 25.15 52.45 25.15 54.3 24.75 56.05 24.4 57.45 23.7
L 57.45 23.65 57.5 23.65 57.45 23.7 57.45 30.2 57.45 57.55 Z
M 40.8 35.175
Q 46.1048828125 35.4685546875 51.05 34
M 33.55 34
Q 34.809375 34.33359375 36.05 34.575
M 10.55 33
Q 18.95 30.65 27.3 33"/>
</defs>

<g transform="matrix( 1, 0, 0, 1, 0,0) ">
<use xlink:href="#Layer5_0_1_STROKES"/>
</g>
</svg>
