<svg id="icons" fill='white' height="512" viewBox="0 0 340 340" width="512" xmlns="http://www.w3.org/2000/svg"><path d="m259.017 96.835a12.183 12.183 0 0 0 .793-13.23 77.564 77.564 0 0 0 -7.932-11.438 91.786 91.786 0 0 0 -48.078-30.067c-35.763-9.281-64.823-1.091-67.734-.219-35.731 7.434-59.456 29.088-73.073 45.959-2.724 3.375-5.156 6.684-7.316 9.842a161.474 161.474 0 0 1 -47.483 37.037 4 4 0 1 0 3.612 7.138 166.5 166.5 0 0 0 30.477-20.041c-.259.624-.423 1.044-.5 1.233-15.622 36.412-33.8 49.5-34.07 49.694a4 4 0 0 0 4.555 6.576c.818-.564 20.223-14.279 36.9-53.194.023-.055.046-.11.067-.166.236-.629 24.406-63.021 88.624-76.283.125-.026.254-.059.376-.1.286-.089 28.945-8.718 63.548.263a83.837 83.837 0 0 1 43.937 27.435 69.637 69.637 0 0 1 7.117 10.252 4.263 4.263 0 0 1 -.306 4.626 4.107 4.107 0 0 1 -4.133 1.691 28.27 28.27 0 0 0 -13.51.733 18.9 18.9 0 0 0 -3.721-4.73 20.632 20.632 0 0 0 -20.16-4.214 45.655 45.655 0 0 0 -10.376 4.9 12 12 0 0 1 -16.325-3.225 12.61 12.61 0 0 1 -1.225-2.2 4 4 0 0 0 -6.306-1.706l-7.4 6.127a13.6 13.6 0 0 1 -8.652 3.117h-2.915a28.188 28.188 0 0 0 -16.678 5.418 61.81 61.81 0 0 0 -15.365 16.64c-5.97 9.38-9.467 24.624-11.217 34.413a62.783 62.783 0 0 0 -25.2 11.782 63.993 63.993 0 0 0 -15.627 17.2 4 4 0 0 0 6.967 3.931c.175-.31 17.967-31 56.111-25.737a5.593 5.593 0 0 1 4.314 2.987c1.791 3.764-3.272 7.483-7.836 9.94a4 4 0 0 0 -1.723 5.224 11.528 11.528 0 0 1 .184 8.367c-1.283 3.044-4.35 5.423-9.116 7.073a3.989 3.989 0 0 0 -2.549 2.635 3.946 3.946 0 0 0 .684 3.579 11.69 11.69 0 0 1 1.479 8.722 4 4 0 0 0 3.227 4.646 4.06 4.06 0 0 0 .715.064 4 4 0 0 0 3.931-3.292 20.786 20.786 0 0 0 -.711-10.542c4.721-2.39 7.979-5.668 9.711-9.778a18.7 18.7 0 0 0 .829-11.331c11.485-7.314 10.285-14.78 8.4-18.744a13.493 13.493 0 0 0 -10.446-7.476 69.437 69.437 0 0 0 -14.979-.471c1.646-8.449 4.769-21.307 9.6-28.9a53.885 53.885 0 0 1 13.373-14.5 19.559 19.559 0 0 1 6.2-3.026c-3.877 6.113-8.927 16.1-12.721 30.816a4 4 0 1 0 7.747 2c5.181-20.095 12.823-30.544 15.47-33.719a21.629 21.629 0 0 0 11.89-4.871l3.767-3.117a19.545 19.545 0 0 0 6.737 5.656c-8.139 8.186-22.215 26.534-25.647 57.936-.171 1.563-.309 3.146-.411 4.707a4 4 0 0 0 3.733 4.25c.088.006.176.009.263.009a4 4 0 0 0 3.988-3.741c.094-1.444.221-2.909.379-4.356 3.874-35.44 22.683-52.916 27.173-56.622a20.378 20.378 0 0 0 10.4-3.082 39.043 39.043 0 0 1 8.535-4.06 12.629 12.629 0 0 1 12.346 2.448 11.137 11.137 0 0 1 1.684 1.955c-9.228 4.85-32.668 20.285-43.478 56.074a64.615 64.615 0 0 0 -.46 36.789c4.566 15.705 14.872 28.2 29.8 36.133a4 4 0 0 0 3.754-7.065c-13.162-6.994-21.868-17.525-25.873-31.3a56.632 56.632 0 0 1 .437-32.242c12.163-40.266 42.238-52.612 42.531-52.728.021-.008.037-.021.058-.029s.04-.01.06-.019a21.3 21.3 0 0 1 12.624-1.587 12.025 12.025 0 0 0 12.145-4.869z"/><path d="m183.081 85.103v.001z"/><path d="m240.041 154.362a14.512 14.512 0 0 0 -26.219 12.165 18.746 18.746 0 0 0 2.758 4.991 14.052 14.052 0 0 0 11.173 5.544 14.612 14.612 0 0 0 4.718-.791 14.352 14.352 0 0 0 9.866-13.715v-.412a14.673 14.673 0 0 0 -1.844-6.992c-.141-.252-.293-.512-.452-.79zm-10.148 14.338a6.1 6.1 0 0 1 -6.984-2.074 10.747 10.747 0 0 1 -1.581-2.863 6.507 6.507 0 0 1 7.036-8.568 6.525 6.525 0 0 1 4.765 3.2c.135.231.26.45.378.662a6.624 6.624 0 0 1 .829 3.164v.314a6.391 6.391 0 0 1 -4.443 6.165z"/><path d="m293.239 148.4a11.026 11.026 0 1 0 11.026 11.026 11.039 11.039 0 0 0 -11.026-11.026zm0 14.052a3.026 3.026 0 1 1 3.026-3.026 3.029 3.029 0 0 1 -3.026 3.024z"/><path d="m256.1 214.444a9.852 9.852 0 0 1 11.528-1.572c11.2 6.075 32.212 17.151 47.258 23.185 1.462.7 9.752 4.445 15.868 3.275a4 4 0 0 0 -1.508-7.857c-2.685.516-8.054-1.259-11-2.681-.086-.042-.173-.08-.261-.115-14.677-5.871-35.459-16.829-46.539-22.839a17.831 17.831 0 0 0 -20.865 2.816 136.393 136.393 0 0 1 -44.485 27.849c-12.907-3.963-23.273-13.962-30.806-29.777-.86-1.8-1.666-3.661-2.4-5.52a4 4 0 1 0 -7.446 2.924c.8 2.033 1.679 4.064 2.619 6.038 6.694 14.05 15.857 24.322 26.837 30.264a169.34 169.34 0 0 1 -18.84 4.686c-9.1-4.731-16.88-12.653-23.138-23.584a82.183 82.183 0 0 1 -8.064-19.712 4 4 0 0 0 -7.731 2.057 90.2 90.2 0 0 0 8.852 21.63 76.162 76.162 0 0 0 12.606 16.621 224.051 224.051 0 0 1 -30.9-22.113 17.63 17.63 0 0 0 -23.915.572 172.961 172.961 0 0 1 -26.319 20.779c-34.644 22.33-67.545 26.807-67.957 26.86a4.1 4.1 0 0 0 -.7.161c-.029.01-.062.012-.091.021a3.988 3.988 0 0 0 -.465.212c-.082.04-.172.069-.251.114-.1.058-.184.134-.277.2a4.008 4.008 0 0 0 -.351.253c-.057.05-.1.112-.155.165a3.931 3.931 0 0 0 -.37.394c-.032.04-.053.088-.082.13a3.933 3.933 0 0 0 -.328.518c-.055.109-.088.229-.134.343s-.109.246-.146.377a3.975 3.975 0 0 0 -.13.733c0 .014-.006.027-.007.041a4.005 4.005 0 0 0 4.492 4.276c2.215-.281 54.755-7.364 98.821-49.815a9.672 9.672 0 0 1 13.12-.292c7.635 6.631 20.863 16.839 40.5 27.843a3.973 3.973 0 0 0 1.14.635 364.37 364.37 0 0 0 53.463 24.023 3.941 3.941 0 0 0 1.177.426h.023c26.439 9.426 58.412 17.827 96.517 23.259a4.076 4.076 0 0 0 .569.041 4 4 0 0 0 .56-7.961c-36.284-5.172-66.867-13.052-92.3-21.917a17.958 17.958 0 0 1 8.351-10.875 18.767 18.767 0 0 1 14.694-1.8l43.075 12.625a4 4 0 0 0 3.847-6.769c-6.079-5.646-17.5-14.579-26.018-21.08a4.541 4.541 0 0 1 -1.8-3.554 4.6 4.6 0 0 1 1.7-3.654l.176-.143a4.253 4.253 0 0 1 4.808-.366c14.892 8.7 41.491 16.584 56.021 20.512a4 4 0 0 0 2.088-7.723c-11.389-3.078-39.457-11.16-54.075-19.7a12.278 12.278 0 0 0 -13.891 1.069l-.177.143a12.588 12.588 0 0 0 .287 19.772c3.337 2.548 7.125 5.472 10.844 8.41l-24.643-7.222a26.807 26.807 0 0 0 -20.982 2.573 25.888 25.888 0 0 0 -11.874 15.064 363.393 363.393 0 0 1 -38.546-16.8c20.036-3.824 52.075-13.592 78.126-38.448z"/><path d="m109.417 255.294a70.218 70.218 0 0 1 5.982-4.029 9.8 9.8 0 0 1 11.2.776c36.809 29.037 89.4 43.885 117.47 50.151a4 4 0 0 0 1.743-7.808c-27.407-6.117-78.695-20.57-114.258-48.624a17.962 17.962 0 0 0 -20.282-1.35 78.445 78.445 0 0 0 -6.665 4.489 17.847 17.847 0 0 0 -.5 28.2 200.222 200.222 0 0 0 39.2 24.811 4 4 0 0 0 3.384-7.25 191.973 191.973 0 0 1 -37.578-23.8 9.721 9.721 0 0 1 -3.666-7.791 9.856 9.856 0 0 1 3.97-7.775z"/><path d="m65.618 274.416c-6.495 4.435-11.627 12.028-15.253 22.571a4 4 0 1 0 7.566 2.6c3.01-8.753 7.228-15.173 12.2-18.567a8.911 8.911 0 0 1 11.011.848c7.407 6.684 17.592 13.4 30.273 19.97a4 4 0 0 0 3.679-7.1c-12.076-6.256-21.694-12.583-28.594-18.807a16.886 16.886 0 0 0 -20.882-1.515z"/><path d="m72.96 192.368a3.746 3.746 0 0 0 -.36-.69 4.919 4.919 0 0 0 -.5-.61 4.279 4.279 0 0 0 -.61-.5 5.038 5.038 0 0 0 -.69-.37 3.88 3.88 0 0 0 -.75-.221 4.041 4.041 0 0 0 -3.61 1.091 4.093 4.093 0 0 0 -.49.61 4.033 4.033 0 0 0 -.6 1.44 3.842 3.842 0 0 0 0 1.56 4.033 4.033 0 0 0 .6 1.44 3.637 3.637 0 0 0 1.1 1.1 3.828 3.828 0 0 0 .69.37 3.9 3.9 0 0 0 .75.23 4.128 4.128 0 0 0 .78.079 4.025 4.025 0 0 0 2.83-1.17 4.837 4.837 0 0 0 .5-.609 3.811 3.811 0 0 0 .36-.69 3.875 3.875 0 0 0 .23-.75 3.842 3.842 0 0 0 0-1.56 3.791 3.791 0 0 0 -.23-.75z"/><path d="m248.96 121.437a3.985 3.985 0 0 0 0 5.661 4.279 4.279 0 0 0 .61.5 3.813 3.813 0 0 0 .69.36 3.88 3.88 0 0 0 .74.229 4.153 4.153 0 0 0 .79.081 4.05 4.05 0 0 0 .78-.081 4.211 4.211 0 0 0 .75-.229 4.615 4.615 0 0 0 .69-.36 4.188 4.188 0 0 0 .6-.5 4 4 0 1 0 -5.65-5.661z"/><path d="m301.72 187.038a3.956 3.956 0 0 0 -.23.74 4.234 4.234 0 0 0 -.08.79 4 4 0 0 0 8 0 4.219 4.219 0 0 0 -.07-.79 4.87 4.87 0 0 0 -.23-.74 3.782 3.782 0 0 0 -.37-.69 4 4 0 0 0 -1.11-1.11 3.782 3.782 0 0 0 -.69-.37 4.025 4.025 0 0 0 -4.35.87 4.049 4.049 0 0 0 -.87 1.3z"/><path d="m163.129 177.941a4 4 0 0 0 -3.388 4.531q.136.951.293 1.9a4 4 0 1 0 7.894-1.295q-.142-.873-.269-1.749a4 4 0 0 0 -4.53-3.387z"/></svg>