<svg id="wounds" fill='white' enable-background="new 0 0 300 300" height="512" viewBox="0 0 300 300" width="512" xmlns="http://www.w3.org/2000/svg"><g><path d="m260.524 204.619 2.828-2.828c1.562-1.562 1.562-4.094 0-5.656s-4.094-1.562-5.656 0l-2.828 2.828-2.828-2.828c-1.562-1.562-4.094-1.562-5.656 0s-1.562 4.094 0 5.656l2.828 2.828-2.828 2.828c-1.562 1.562-1.562 4.094 0 5.656.781.781 1.805 1.172 2.828 1.172s2.047-.391 2.828-1.172l2.828-2.828 2.828 2.828c.781.781 1.805 1.172 2.828 1.172s2.047-.391 2.828-1.172c1.562-1.562 1.562-4.094 0-5.656z"/><circle cx="258.868" cy="244.619" r="4"/><path d="m250.334 156.783c1.555-2.906 1.883-6.246.928-9.398-1.973-6.512-8.873-10.199-15.387-8.23-3.154.957-5.746 3.082-7.301 5.988s-1.883 6.246-.928 9.398c.955 3.156 3.082 5.75 5.988 7.305 1.816.969 3.799 1.461 5.803 1.461 1.203 0 2.412-.176 3.596-.535 3.155-.958 5.747-3.083 7.301-5.989zm-9.621-1.668c-1.107.336-2.281.223-3.305-.324-1.021-.547-1.77-1.461-2.105-2.57s-.221-2.281.326-3.305 1.459-1.77 2.566-2.105c.418-.125.84-.188 1.256-.188 1.861 0 3.586 1.211 4.154 3.082.694 2.289-.603 4.714-2.892 5.41z"/><path d="m201.42 197.478c4.527-5.508 7.229-13.41 6.617-19.91l-5.666-84.32c-.904-9.648-5.08-14.703-12.412-15.027-4.719-.195-9.109 1.336-12.293 4.359-3.066 2.91-4.775 6.973-4.814 11.441-.049 5.801-1.414 14.238-2.816 21.422l-25.209-74.469c-2.457-6.301-8.857-10.172-15.854-9.336-4.584.531-8.643 3.051-11.139 6.918-2.482 3.848-3.109 8.555-1.719 12.918 3.346 10.5 7.885 25.207 11.893 38.293l-34.35-56.25c-3.945-6.594-12.324-8.879-19.309-5.105-3.451 1.871-5.971 4.957-7.094 8.691-1.127 3.742-.721 7.699 1.143 11.141 5.955 10.992 18.453 33.277 28.764 51.578l-29.337-31.117c-2.797-2.977-6.742-4.504-10.812-4.227-4.074.293-7.752 2.383-10.092 5.727-3.367 4.809-3.252 11.191.311 15.91l34.534 44.785-24.785-15.391c-6.393-4.152-14.764-2.457-19.059 3.828-3.898 5.707-3.064 13.277 1.98 18 .109.102.223.195.344.285l46.768 34.824c4.195 3.945 8.146 8.203 11.748 12.656l19.521 24.133c2.38 2.943 5.209 6.188 8.408 8.915-2.602 4.849-4.726 10.841-4.726 17.565 0 9.32 7.582 16.902 16.902 16.902 6.17 0 11.522-3.358 14.474-8.308l15.042 27.042c.732 1.312 2.096 2.055 3.5 2.055.658 0 1.324-.16 1.941-.504 1.93-1.074 2.625-3.512 1.551-5.441l-19.881-35.741c-1.852-14.983-13.416-25.594-13.951-26.075-1.52-1.367-3.832-1.367-5.352 0-.229.206-2.484 2.282-5.129 5.738-2.403-2.185-4.628-4.793-6.559-7.179l-19.521-24.133c-3.877-4.797-8.137-9.379-12.664-13.617-.109-.105-.225-.199-.346-.289l-46.746-34.809c-2.016-2.012-2.316-5.137-.699-7.508 1.822-2.672 5.381-3.391 8.168-1.586l43.621 27.09c1.641 1.02 3.775.715 5.078-.715 1.297-1.438 1.381-3.594.199-5.125l-48.002-62.25c-1.443-1.91-1.49-4.512-.117-6.473.953-1.363 2.451-2.211 4.111-2.332 1.621-.094 3.266.508 4.412 1.727l51.93 55.078c1.385 1.477 3.656 1.672 5.285.477 1.629-1.203 2.104-3.43 1.105-5.191-.338-.594-33.875-59.785-44.885-80.117-.842-1.551-1.025-3.336-.518-5.023.512-1.699 1.662-3.105 3.475-4.086 2.979-1.602 6.666-.598 8.42 2.336l50.775 83.145c1.051 1.719 3.211 2.383 5.049 1.566 1.836-.824 2.775-2.883 2.193-4.809-.135-.449-13.592-44.984-21.092-68.516-.662-2.078-.363-4.32.82-6.152 1.191-1.848 3.139-3.051 5.625-3.34 3.082-.355 6.055 1.418 7.129 4.156l29.296 86.553c-.828 1.753-1.697 3.517-2.61 5.318l-.121.238c-.998 1.973-.15 4.258 1.82 5.258.551.277 1.139.41 1.725.41 1.51 0 2.992-.871 3.713-2.289 1.141-2.254 2.266-4.473 3.26-6.648.464-1.02.77-2.269.965-3.741 1.528-6.539 5.404-24.131 5.494-34.716.02-2.312.822-4.285 2.322-5.707 1.594-1.516 3.844-2.305 6.434-2.172 1.725.074 4.086.18 4.791 7.68l5.666 84.32c.486 5.188-2.32 12.148-6.391 15.844-1.449 1.316-1.734 3.484-.674 5.129l28.279 43.82c.766 1.188 2.051 1.832 3.365 1.832.742 0 1.494-.207 2.164-.641 1.857-1.195 2.391-3.672 1.193-5.527zm-62.552 16.977c3.422 4.039 8.902 11.961 8.902 21.262 0 4.91-3.994 8.902-8.902 8.902s-8.902-3.992-8.902-8.902c-.001-9.301 5.48-17.223 8.902-21.262z"/><path d="m150.868 144.619c-13.234 0-24 10.766-24 24v16c0 6.617 5.383 12 12 12 3.627 0 6.844-1.651 9.046-4.203.98.121 1.966.203 2.954.203 13.234 0 24-10.766 24-24s-10.766-24-24-24zm-8 40c0 2.207-1.795 4-4 4s-4-1.793-4-4v-12h5.625c1.309 0 2.375 1.066 2.375 2.375zm-2.375-20h-5.057c.792-3.049 2.444-5.729 4.705-7.789.89-.131 1.798-.211 2.727-.211 11.046 0 20 8.954 20 20 0 .929-.08 1.836-.211 2.727-2.929 3.216-7.107 5.273-11.789 5.273v-9.625c0-5.723-4.655-10.375-10.375-10.375z"/></g></svg>