
<svg vector-effect="non-scaling-stroke" xmlns="http://www.w3.org/2000/svg" version="1.1" xmlns:xlink="http://www.w3.org/1999/xlink" preserveAspectRatio="none" x="0px" y="0px" width="60px" height="60px" viewBox="0 0 60 60">
<defs>
<path id="Layer4_0_1_STROKES" stroke="#FFFFFF" stroke-width="1" stroke-linejoin="round" stroke-linecap="round" fill="none" d="
M 42.4 7.35
Q 42.725 6.9107421875 43.075 6.775 43.2822265625 6.60625 44.125 6.7
L 44.15 6.7
Q 45.3890625 6.7873046875 45.95 7.575
L 45.95 7.6
Q 46.45 8.174609375 46.45 9.5 46.46171875 9.96015625 45.95 13.725
L 45.95 13.75
Q 45.45 17.3498046875 44.85 21.5 44.55234375 23.49609375 44.45 25.15 44.37578125 26.4115234375 44.5 26.8 44.541796875 26.8880859375 44.575 26.975 44.6146484375 26.9259765625 44.675 26.85
L 44.625 26.95
Q 44.9853515625 26.3814453125 45.775 24.55
L 45.8 24.525
Q 46.2380859375 23.60703125 46.725 22.35
L 46.725 22.3
Q 47.3392578125 20.91953125 47.75 20.1
L 47.75 20.125
Q 48.1373046875 19.2978515625 48.525 18.325 48.5373046875 18.3005859375 48.55 18.275 48.9671875 17.3736328125 49.15 16.85
L 49.175 16.825
Q 49.74140625 15.4236328125 50.05 14.8
L 50.075 14.775
Q 50.6015625 13.7861328125 51.025 13.6 51.5173828125 13.2462890625 52.1 13.25 52.8017578125 13.233984375 53.4 13.725
L 53.35 13.7
Q 53.855859375 14.0744140625 53.95 14.475 54.0810546875 14.7259765625 54 15.475 53.956640625 16.119140625 53.425 18.15 52.913671875 20.07421875 52.25 22.1 51.750390625 23.7115234375 51.1 25.625 50.488671875 27.3349609375 49.475 29.95
L 49.475 30
Q 48.941796875 31.2060546875 48.65 32.025 48.358203125 32.9005859375 48.275 33.15 48.2396484375 33.305859375 48.2 33.7 48.2 34.1 48.2 34.5 48.2 34.8 48.2 35.1
L 48.2 35.15
Q 48.0921875 37.7056640625 47.25 40.575 46.3345703125 43.6400390625 44.4 47.875 44.3494140625 47.99453125 44.275 48.1
L 43.5 49.775 43.4 56.175
Q 43.3923828125 56.572265625 43.1 56.85 42.807421875 57.1431640625 42.4 57.15
L 28.45 57.2
Q 28.0626953125 57.196875 27.775 56.925 27.4828125 56.66171875 27.45 56.275
L 27.4 55.7
Q 27.2994140625 54.966796875 27.25 53.925 27.1677734375 52.733984375 27.05 52.075 26.873046875 51.5466796875 26.6 51.225 26.511328125 51.1212890625 26.45 51 26.5001953125 51.1169921875 26.45 51.075 26.325390625 51.0025390625 26.225 50.9 26.0490234375 50.67734375 25.875 50.525
L 25.85 50.525
Q 24.62265625 49.4994140625 23.6 48.525 22.6419921875 47.60625 21.075 45.925 19.1185546875 43.8216796875 17.55 42.35
L 17.525 42.325
Q 15.9404296875 40.9548828125 14.7 39.925 13.0724609375 38.77890625 11.35 37.775
L 11.35 37.75
Q 9.74609375 36.8134765625 8.325 36.25 6.47421875 35.58203125 6.15 34.875 5.3916015625 33.813671875 6.525 32.575 7.3123046875 31.6576171875 8.925 31.45
L 8.975 31.45
Q 10.300390625 31.3302734375 12.125 31.775
L 12.15 31.775
Q 14.153125 32.3072265625 15.575 33 17.0041015625 33.68046875 18.8 35.15
L 18.825 35.175
Q 19.184765625 35.43515625 19.625 35.7
L 19.65 35.725
Q 20.1 36.025 20.4 36.225
L 20.3 36.15
Q 20.5439453125 36.278515625 20.725 36.325 20.8693359375 36.3416015625 21 36.4 21.08125 36.3970703125 21.3 36.4 21.7974609375 36.3943359375 22.1 36.275 22.413671875 36.0689453125 22.825 35.625
L 22.8 35.625
Q 23.6521484375 34.6533203125 24.175 32.775
L 24.175 32.8
Q 24.703515625 30.7669921875 24.95 27.1 24.9998046875 26.3052734375 25.05 24.425
L 25.05 24.4
Q 25.14921875 22.2263671875 25.15 20.3
L 25.15 20.275
Q 25.2490234375 14.9908203125 25.5 12.025 25.7646484375 8.828125 26.1 7.925 26.1224609375 7.8609375 26.15 7.8 26.5271484375 7.0552734375 26.925 6.775 26.9630859375 6.7490234375 27 6.725 27.501171875 6.353515625 28.35 6.35 28.989453125 6.3525390625 29.3 6.5 30.0748046875 6.648046875 30.325 7.65
L 30.3 7.625
Q 30.4267578125 8.0236328125 30.55 8.875
L 30.55 8.925
Q 30.6001953125 9.5392578125 30.65 11.075 30.7001953125 13.913671875 30.85 17.4 31.049609375 20.8630859375 31.15 21.85 31.2755859375 23.1435546875 31.5 23.65 31.50703125 23.5779296875 31.525 23.5
L 31.55 23.475
Q 31.8197265625 22.512109375 32.15 18.575
L 32.15 18.55
Q 32.2998046875 17.037890625 32.5 15.425 32.7 13.7755859375 32.8 12.925
L 32.8 12.9 33.45 8.7
Q 33.82421875 6.3099609375 34.15 5.275
L 34.125 5.275
Q 34.5380859375 3.783984375 35.15 3.375 35.623046875 2.928515625 36.675 2.85 36.7150390625 2.8484375 36.75 2.85 37.6560546875 2.8443359375 38.225 3.275 38.4298828125 3.425390625 38.55 3.65 38.5984375 3.7474609375 38.625 3.85 38.638671875 3.873828125 38.65 3.9 38.7609375 4.0966796875 38.875 4.375 38.8875 4.401171875 38.9 4.425 39.07421875 4.8845703125 39 5.65 38.949609375 6.1025390625 38.75 8.05 38.73828125 8.085546875 38.725 8.125 38.6443359375 8.6517578125 38.65 9.4 38.6533203125 9.461328125 38.65 9.525 38.5544921875 10.3025390625 38.55 10.85 38.5509765625 10.8853515625 38.55 10.925 38.3998046875 13.162890625 38.2 16.4 38.0998046875 18.05 38 19.8 37.9029296875 21.451171875 37.85 22.3
L 37.85 22.35
Q 37.8548828125 23.5123046875 37.9 23.875 37.9052734375 23.9421875 37.925 24 37.9306640625 23.9638671875 37.95 23.925 37.9630859375 23.9001953125 37.975 23.875 38.321875 23.1908203125 38.675 21.875 39.3255859375 19.534375 40.325 15.55 41.3185546875 11.60703125 41.525 10.475 41.7767578125 8.9357421875 41.875 8.475 41.884765625 8.4271484375 41.9 8.375 42.1021484375 7.7873046875 42.375 7.4 42.3884765625 7.3748046875 42.4 7.35 Z
M 43.5 47.45
Q 42.6 46.95 41.85 46.2 39.95 44.3 39.95 41.6 39.95 38.9 41.85 36.95 43.8 35.05 46.5 35.05 46.85 35.05 47.2 35.1
M 51.95 37.7
L 54.55 37.7
M 48.35 48.8
L 50.2 50.65"/>
</defs>

<g transform="matrix( 1, 0, 0, 1, 0,0) ">
<use xlink:href="#Layer4_0_1_STROKES"/>
</g>
</svg>
